<?xml version="1.0" encoding="utf-8"?>
<!-- Generator: Adobe Illustrator 24.0.2, SVG Export Plug-In . SVG Version: 6.00 Build 0)  -->
<svg version="1.1" id="Capa_1" xmlns="http://www.w3.org/2000/svg" xmlns:xlink="http://www.w3.org/1999/xlink" x="0px" y="0px"
	 viewBox="0 0 475 411.73" style="enable-background:new 0 0 475 411.73;" xml:space="preserve">
<style type="text/css">
	.st0{fill:#FFFFFF;}
	.st1{fill:url(#SVGID_1_);}
	.st2{fill:url(#SVGID_2_);}
	.st3{fill:url(#SVGID_3_);}
	.st4{fill:url(#SVGID_4_);}
	.st5{fill:url(#SVGID_5_);}
	.st6{fill:url(#SVGID_6_);}
	.st7{fill:url(#SVGID_7_);}
	.st8{fill:url(#SVGID_8_);}
	.st9{fill:url(#SVGID_9_);}
	.st10{fill:url(#SVGID_10_);}
</style>
<g>
	<g>
		<path class="st0" d="M431.41,183.29c2.27-0.73,3.84-2.79,3.94-5.18l1.07-27.11c0.07-1.84-0.76-3.61-2.22-4.73
			c-1-0.77-2.21-1.17-3.44-1.17c-0.25,0-0.51,0.02-0.76,0.06l1.42-0.45c2.27-0.73,3.84-2.79,3.94-5.18l1.07-27.11
			c0.07-1.84-0.76-3.61-2.22-4.73c-1-0.77-2.21-1.17-3.44-1.17c-0.57,0-1.14,0.09-1.7,0.26l-68.95,21.68
			c0.34-1.4,0.14-2.89-0.59-4.16c-13.44-23.45-32.85-43.13-56.11-56.9c-23.97-14.19-51.44-21.69-79.44-21.69
			c-31.39,0-61.66,9.28-87.54,26.83c-25.25,17.13-44.81,41.01-56.55,69.07c-0.56,1.34-0.58,2.84-0.07,4.19L32.36,129
			c-0.61-0.22-1.25-0.33-1.89-0.33c-0.37,0-0.74,0.04-1.1,0.11c-4.24,0.84-7.52,4.49-8.57,9.53c-1.17,5.6,0.71,11.05,4.78,13.87
			c0.39,0.27,0.81,0.49,1.26,0.66L27,152.9c0.01,0.05,0,0.1,0.01,0.15l14.12,110.63c0.19,1.51,0.98,2.87,2.19,3.79l126.04,95.93
			c0.2,0.17,0.4,0.32,0.63,0.46l6.05,3.8c0.92,0.58,1.97,0.87,3.02,0.87c0.94,0,1.88-0.23,2.73-0.7c1.8-0.99,2.93-2.88,2.94-4.94
			l0.86-157.42c0-0.32-0.03-0.63-0.08-0.93c1.19-1.07,2.21-2.34,2.99-3.75l0.4,13.88c0.05,1.78,0.94,3.43,2.39,4.46
			c0.36,0.26,0.75,0.45,1.15,0.61l-0.38,0.12c-2.42,0.76-4.04,3.04-3.97,5.57l0.8,27.8c0.05,1.78,0.94,3.43,2.39,4.46
			c0.55,0.39,1.17,0.66,1.81,0.84l-1.04,0.33c-2.42,0.76-4.04,3.04-3.97,5.57l0.8,27.8c0.05,1.78,0.94,3.43,2.39,4.46
			c0.06,0.04,0.13,0.07,0.19,0.11c-2.09,0.92-3.45,3.01-3.38,5.33l0.8,27.8c0.05,1.7,0.87,3.28,2.21,4.32
			c-1.88,1-3.07,2.98-3.01,5.17l0.8,27.8c0.05,1.78,0.94,3.43,2.39,4.46c0.97,0.69,2.12,1.04,3.28,1.04c0.58,0,1.16-0.09,1.73-0.27
			l235.13-75.2c2.27-0.73,3.84-2.79,3.94-5.18l1.07-27.11c0.07-1.84-0.76-3.61-2.22-4.73c-0.48-0.37-1.02-0.65-1.58-0.85
			c1.6-0.97,2.65-2.68,2.73-4.61l1.07-27.11c0.07-1.84-0.76-3.61-2.22-4.73c-0.63-0.48-1.35-0.8-2.1-0.98
			c1.89-0.89,3.16-2.76,3.25-4.89l1.07-27.11c0.07-1.84-0.76-3.61-2.22-4.73c-1-0.77-2.21-1.17-3.44-1.17
			c-0.57,0-1.14,0.09-1.7,0.26L431.41,183.29z M187.86,185.67c0.11,0,0.23-0.02,0.34-0.03c-0.06,0.33-0.1,0.66-0.1,1
			c-0.22-0.35-0.44-0.69-0.69-1.02C187.56,185.64,187.71,185.67,187.86,185.67z"/>
	</g>
	<linearGradient id="SVGID_1_" gradientUnits="userSpaceOnUse" x1="219.8457" y1="178.426" x2="219.8457" y2="50.4827">
		<stop  offset="0" style="stop-color:#FEA800"/>
		<stop  offset="1" style="stop-color:#F9F300"/>
	</linearGradient>
	<path class="st1" d="M354.59,126.87c-25.94-45.26-74.73-75.74-130.63-75.74c-62.53,0-116.15,38.14-138.86,92.42l102.76,36.17
		L354.59,126.87z"/>
	<linearGradient id="SVGID_2_" gradientUnits="userSpaceOnUse" x1="198.2239" y1="199.4102" x2="430.6139" y2="124.3308">
		<stop  offset="0" style="stop-color:#02A4F5"/>
		<stop  offset="1" style="stop-color:#1345AC"/>
	</linearGradient>
	<polygon class="st2" points="193.75,186.44 430.75,111.94 429.68,139.05 194.55,214.25 	"/>
	<linearGradient id="SVGID_3_" gradientUnits="userSpaceOnUse" x1="198.2239" y1="237.9817" x2="430.6139" y2="162.9023">
		<stop  offset="0" style="stop-color:#02A4F5"/>
		<stop  offset="1" style="stop-color:#1345AC"/>
	</linearGradient>
	<polygon class="st3" points="193.75,225.01 430.75,150.51 429.68,177.62 194.55,252.82 	"/>
	<linearGradient id="SVGID_4_" gradientUnits="userSpaceOnUse" x1="198.2239" y1="276.9817" x2="430.6139" y2="201.9023">
		<stop  offset="0" style="stop-color:#02A4F5"/>
		<stop  offset="1" style="stop-color:#1345AC"/>
	</linearGradient>
	<polygon class="st4" points="193.75,264.01 430.75,189.51 429.68,216.62 194.55,291.82 	"/>
	<linearGradient id="SVGID_5_" gradientUnits="userSpaceOnUse" x1="198.2239" y1="314.696" x2="430.6139" y2="239.6166">
		<stop  offset="0" style="stop-color:#02A4F5"/>
		<stop  offset="1" style="stop-color:#1345AC"/>
	</linearGradient>
	<polygon class="st5" points="193.75,301.73 430.75,227.22 429.68,254.33 194.55,329.53 	"/>
	<linearGradient id="SVGID_6_" gradientUnits="userSpaceOnUse" x1="198.2239" y1="351.9817" x2="430.6139" y2="276.9023">
		<stop  offset="0" style="stop-color:#02A4F5"/>
		<stop  offset="1" style="stop-color:#1345AC"/>
	</linearGradient>
	<polygon class="st6" points="193.75,339.01 430.75,264.51 429.68,291.62 194.55,366.82 	"/>
	<linearGradient id="SVGID_7_" gradientUnits="userSpaceOnUse" x1="176.0446" y1="201.8944" x2="176.0446" y2="185.7028">
		<stop  offset="0" style="stop-color:#0076AD"/>
		<stop  offset="1" style="stop-color:#052C86"/>
	</linearGradient>
	<circle class="st7" cx="176.04" cy="193.77" r="8.49"/>
	<linearGradient id="SVGID_8_" gradientUnits="userSpaceOnUse" x1="163.1123" y1="189.0233" x2="28.3314" y2="139.8327">
		<stop  offset="0" style="stop-color:#01AAF9"/>
		<stop  offset="1" style="stop-color:#04328D"/>
	</linearGradient>
	<path class="st8" d="M30.46,134.07l139.82,49.58c-3.98,1.99-7.53,6.74-5.71,13.9L28.8,147.25
		C24.34,144.15,25.86,134.98,30.46,134.07z"/>
	<linearGradient id="SVGID_9_" gradientUnits="userSpaceOnUse" x1="102.8295" y1="307.8542" x2="102.8295" y2="173.6859">
		<stop  offset="0" style="stop-color:#01AAF9"/>
		<stop  offset="1" style="stop-color:#1248AE"/>
	</linearGradient>
	<polygon class="st9" points="32.64,152.06 170.02,203.97 173.02,358.8 46.75,262.69 	"/>
	<linearGradient id="SVGID_10_" gradientUnits="userSpaceOnUse" x1="174.958" y1="364.9763" x2="174.958" y2="203.4833">
		<stop  offset="0" style="stop-color:#0077AD"/>
		<stop  offset="1" style="stop-color:#042B85"/>
	</linearGradient>
	<polygon class="st10" points="170,203.97 179.91,205.18 179.05,362.6 173,358.8 	"/>
</g>
</svg>
