<?xml version="1.0" encoding="utf-8"?>
<!-- Generator: Adobe Illustrator 24.0.2, SVG Export Plug-In . SVG Version: 6.00 Build 0)  -->
<svg version="1.1" id="Capa_1" xmlns="http://www.w3.org/2000/svg" xmlns:xlink="http://www.w3.org/1999/xlink" x="0px" y="0px"
	 viewBox="0 0 1467.5 458.29" style="enable-background:new 0 0 1467.5 458.29;" xml:space="preserve">
<style type="text/css">
	.st0{fill:#FFFFFF;}
	.st1{fill:url(#SVGID_1_);}
	.st2{fill:url(#SVGID_2_);}
	.st3{fill:url(#SVGID_3_);}
	.st4{fill:url(#SVGID_4_);}
	.st5{fill:url(#SVGID_5_);}
	.st6{fill:url(#SVGID_6_);}
	.st7{fill:url(#SVGID_7_);}
	.st8{fill:url(#SVGID_8_);}
	.st9{fill:url(#SVGID_9_);}
	.st10{fill:url(#SVGID_10_);}
	.st11{fill:#2F51AA;}
</style>
<g>
	<g>
		<path class="st0" d="M459.69,196.42c2.27-0.73,3.84-2.79,3.94-5.18l1.07-27.11c0.07-1.84-0.76-3.61-2.22-4.73
			c-1-0.77-2.21-1.17-3.44-1.17c-0.25,0-0.51,0.02-0.76,0.06l1.42-0.45c2.27-0.73,3.84-2.79,3.94-5.18l1.07-27.11
			c0.07-1.84-0.76-3.61-2.22-4.73c-1-0.77-2.21-1.17-3.44-1.17c-0.57,0-1.14,0.09-1.7,0.26l-68.95,21.68
			c0.34-1.4,0.14-2.89-0.59-4.16c-13.44-23.45-32.85-43.13-56.11-56.9c-23.97-14.19-51.44-21.69-79.44-21.69
			c-31.39,0-61.66,9.28-87.54,26.83c-25.25,17.13-44.81,41.01-56.55,69.07c-0.56,1.34-0.58,2.84-0.07,4.19l-47.44-16.82
			c-0.61-0.22-1.25-0.33-1.89-0.33c-0.37,0-0.74,0.04-1.1,0.11c-4.24,0.84-7.52,4.49-8.57,9.53c-1.17,5.6,0.71,11.05,4.78,13.87
			c0.39,0.27,0.81,0.49,1.26,0.66l0.17,0.06c0.01,0.05,0,0.1,0.01,0.15L69.42,276.8c0.19,1.51,0.98,2.87,2.19,3.79l126.04,95.93
			c0.2,0.17,0.4,0.32,0.63,0.46l6.05,3.8c0.92,0.58,1.97,0.87,3.02,0.87c0.94,0,1.88-0.23,2.73-0.7c1.8-0.99,2.93-2.88,2.94-4.94
			l0.86-157.42c0-0.32-0.03-0.63-0.08-0.93c1.19-1.07,2.21-2.34,2.99-3.75l0.4,13.88c0.05,1.78,0.94,3.43,2.39,4.46
			c0.36,0.26,0.75,0.45,1.15,0.61l-0.38,0.12c-2.42,0.76-4.04,3.04-3.97,5.57l0.8,27.8c0.05,1.78,0.94,3.43,2.39,4.46
			c0.55,0.39,1.17,0.66,1.81,0.84l-1.04,0.33c-2.42,0.76-4.04,3.04-3.97,5.57l0.8,27.8c0.05,1.78,0.94,3.43,2.39,4.46
			c0.06,0.04,0.13,0.07,0.19,0.11c-2.09,0.92-3.45,3.01-3.38,5.33l0.8,27.8c0.05,1.7,0.87,3.28,2.21,4.32
			c-1.88,1-3.07,2.98-3.01,5.17l0.8,27.8c0.05,1.78,0.94,3.43,2.39,4.46c0.97,0.69,2.12,1.04,3.28,1.04c0.58,0,1.16-0.09,1.73-0.27
			l235.13-75.2c2.27-0.73,3.84-2.79,3.94-5.18l1.07-27.11c0.07-1.84-0.76-3.61-2.22-4.73c-0.48-0.37-1.02-0.65-1.58-0.85
			c1.6-0.97,2.65-2.68,2.73-4.61l1.07-27.11c0.07-1.84-0.76-3.61-2.22-4.73c-0.63-0.48-1.35-0.8-2.1-0.98
			c1.89-0.89,3.16-2.76,3.25-4.89l1.07-27.11c0.07-1.84-0.76-3.61-2.22-4.73c-1-0.77-2.21-1.17-3.44-1.17
			c-0.57,0-1.14,0.09-1.7,0.26L459.69,196.42z M216.14,198.79c0.11,0,0.23-0.02,0.34-0.03c-0.06,0.33-0.1,0.66-0.1,1
			c-0.22-0.35-0.44-0.69-0.69-1.02C215.84,198.77,215.99,198.79,216.14,198.79z"/>
		<path class="st0" d="M503.23,210.52c7.48,5.5,18.35,7.95,35.25,7.95c54.87,0,54.96,0.03,59.68,1.53
			c2.17,0.71,4.26,1.39,4.26,10.24c0,9.3-4.15,10.13-6.38,10.58c-0.05,0.01-0.09,0.02-0.14,0.03c-5.92,1.34-20.78,2.31-35.35,2.31
			c-29.03,0-36.95-1.31-39.09-2.1c-2.01-0.73-2.15-1.08-2.35-1.57c-0.77-1.87-1-6.33-1.11-10.47v-2.2c0-3.13-2.54-5.67-5.67-5.67
			h-14.71c-2.94,0-5.39,2.25-5.65,5.18c-0.17,1.99-0.19,4.43-0.19,5.38c0,13.24,2.16,22.2,13.18,28.82
			c0.02,0.01,0.05,0.03,0.07,0.04c8.11,4.71,18.8,6.15,45.77,6.15c35,0,52.34-1.7,61.87-6.06c0.04-0.02,0.08-0.04,0.12-0.06
			c11.12-5.4,16.53-15.71,16.53-31.51c0-9.54-1.93-16.56-6.06-22.1c-7.4-10.2-18.62-12.25-34.32-12.25
			c-30.38-0.16-30.42-0.16-38.78-0.16c-12.24-0.15-21.03-0.86-26.14-2.1c-3.18-0.88-4.02-1.68-4.4-2.28
			c-0.74-1.17-1.1-3.64-1.1-7.56c0-8.6,0-12.91,46.15-12.91c18.28,0,25.95,1.57,28.89,2.5c3.46,1.07,4.28,1.84,4.61,2.39
			c0.91,1.5,1.01,5.29,1.01,8.02v1.63c0,3.13,2.54,5.67,5.67,5.67h15.22c1.52,0,2.97-0.61,4.03-1.69c1.07-1.08,1.65-2.54,1.64-4.05
			c-0.17-13.79-1.88-22.02-10.79-28.73c-9.02-6.9-22.47-9.47-49.6-9.47c-10.22,0-26.09,0.58-35.37,1.67
			c-12.53,1.41-20.25,3.19-27.64,9c-7.11,5.54-10.72,14.23-10.72,25.81C491.6,195.78,495.29,204.68,503.23,210.52z"/>
		<path class="st0" d="M652.65,264.14c0.03,0.01,0.05,0.01,0.08,0.02c7.92,1.59,22.96,2.39,44.7,2.39c17.65,0,35.94-1,43.49-2.37
			c0.03,0,0.05-0.01,0.08-0.01c9.93-1.95,22.11-8.46,23.8-28.36c0.65-6.84,0.66-7.73,0.81-29.81l0-0.65l0-53.5
			c0-3.13-2.54-5.67-5.67-5.67h-14.16c-3.13,0-5.67,2.54-5.67,5.67v53.46c-0.08,15.77-0.16,23.7-0.57,28.21
			c-0.32,3.48-0.64,3.87-1.43,4.81c-2.98,3.56-24.2,3.85-43.87,3.85c-21.71,0-30.36-0.97-33.79-1.79c-3.82-0.98-4.1-1.69-4.51-2.76
			c-1.13-2.92-1.37-9.3-1.37-17.98V205.3v-53.46c0-3.13-2.54-5.67-5.67-5.67h-14.16c-3.13,0-5.67,2.54-5.67,5.67v53.46
			c0.16,23.57,0.32,25.63,1.15,32.62C631.79,251.45,640.38,261.5,652.65,264.14z"/>
		<path class="st0" d="M773.71,266.39h12.47c3.13,0,5.67-2.54,5.67-5.67V177.6l74.25,86.8c1.08,1.26,2.65,1.98,4.31,1.98h21.16
			c3.13,0,5.67-2.54,5.67-5.67V152c0-3.13-2.54-5.67-5.67-5.67H879.1c-3.13,0-5.67,2.54-5.67,5.67v83.46l-74.67-87.15
			c-1.08-1.26-2.65-1.98-4.31-1.98h-20.74c-3.13,0-5.67,2.54-5.67,5.67v108.72C768.04,263.85,770.58,266.39,773.71,266.39z"/>
		<path class="st0" d="M905.39,266.39h69.14c27.61,0,37.63-1.47,46.56-10.69c8.49-8.79,12.11-23.56,12.11-49.42
			c0-27.13-2.41-38.67-9.94-47.52c-9.25-10.8-19.46-12.43-49.77-12.43h-68.1c-3.13,0-5.67,2.54-5.67,5.67v108.72
			C899.72,263.85,902.26,266.39,905.39,266.39z M924.24,242.33v-71.95h48.96c10.65,0,15.05,0,17.37,0.28
			c0.09,0.01,0.19,0.02,0.28,0.03c8.88,0.64,11.2,2.6,12.73,4.56c1.49,2.14,4.81,9.27,4.81,30.37c0,28.76-5.41,34.05-10.71,35.42
			c-4.71,1.26-4.8,1.28-23.74,1.28H924.24z"/>
		<path class="st0" d="M1040.76,266.39h95.1c3.13,0,5.67-2.54,5.67-5.67V248c0-3.13-2.54-5.67-5.67-5.67h-76.49v-25.99h72.85
			c2.49,0,4.59-1.6,5.36-3.83c0.28,25.3,3.05,37.02,10.16,43.95c9.11,8.9,22.86,10.25,65.4,10.25c33.31,0,45.79-1.33,54.1-9.22
			c0.01-0.01,0.03-0.03,0.04-0.04c4.64-4.49,6.48-8.61,7.46-17.89v21.15c0,3.13,2.54,5.67,5.67,5.67h13.07
			c3.13,0,5.67-2.54,5.67-5.67v-43.55h9.51l65.48,48.12c0.97,0.72,2.15,1.1,3.36,1.1h23.21c2.46,0,4.63-1.58,5.39-3.92
			c0.76-2.34-0.07-4.89-2.06-6.34l-70.37-51.16l66.55-48.39c1.99-1.44,2.82-4,2.06-6.34s-2.94-3.92-5.39-3.92h-22.91
			c-1.21,0-2.39,0.39-3.36,1.11l-61.95,45.67h-9.5V152c0-3.13-2.54-5.67-5.67-5.67h-13.07c-3.13,0-5.67,2.54-5.67,5.67v68.42
			c-0.19-0.28-0.39-0.55-0.63-0.79c-1.07-1.11-2.54-1.74-4.09-1.74h-14.02c-3.06,0-5.56,2.42-5.67,5.48l-0.16,4.89
			c0,0.06,0,0.13,0,0.19c0,3.54-0.15,8.44-1.4,10.15c-0.74,1.01-2.89,1.73-6.97,2.34c-3.62,0.56-21.97,1.41-33.07,1.41
			c-13.78,0-28-0.52-34.57-1.27c-0.05-0.01-0.09-0.01-0.14-0.01c-6.74-0.6-8.04-2.27-8.91-7.68c-0.64-5.41-1.58-22.55-1.58-31
			c0-23.06,3.12-27.57,3.93-28.35c0.64-0.44,3.06-1.64,11.07-2.5c7.11-0.76,17.46-1.13,31.65-1.13c24.58,0,32.64,1.89,35,2.73
			c3.03,1.2,4.17,1.73,4.32,11.2v3.71c0,3.13,2.54,5.67,5.67,5.67h13.53c1.52,0,2.98-0.61,4.04-1.7c1.07-1.08,1.65-2.55,1.63-4.07
			c-0.31-18.1-0.74-24.16-7.5-30.94c-4.52-4.61-10.42-7.37-19.13-8.93c-7.99-1.43-19.02-2.05-36.9-2.05
			c-8.98,0-23.24,0.33-30.2,0.83c-15.7,0.94-23.88,2.28-30.83,7.71c-0.02,0.02-0.04,0.03-0.06,0.05
			c-7.98,6.42-11.34,17.53-12.07,41.98c-0.62-2.45-2.84-4.27-5.49-4.27h-72.85v-21.91h76.34c3.13,0,5.67-2.54,5.67-5.67V152
			c0-3.13-2.54-5.67-5.67-5.67h-94.95c-3.13,0-5.67,2.54-5.67,5.67v108.72C1035.09,263.85,1037.63,266.39,1040.76,266.39z"/>
		<path class="st0" d="M849.06,322.67c0.26-0.19,0.51-0.4,0.74-0.63c1.07-1.08,1.65-2.54,1.64-4.05c-0.07-5.68-0.94-9.6-5.19-12.8
			c-4.38-3.34-10.65-4.01-19.34-4.01c-3.63,0-9.29,0.21-12.63,0.6c-4.89,0.55-8.16,1.33-11.39,3.86c-2.33,1.81-5.12,5.34-5.12,11.81
			c0,4.64,1.2,7.94,3.04,10.29c-0.61,0.34-1.15,0.79-1.59,1.32l-12.3-24.62c-0.96-1.92-2.92-3.14-5.07-3.14h-7.03
			c-2.15,0-4.11,1.21-5.07,3.13L758.92,326v-19.04c0-3.13-2.54-5.67-5.67-5.67h-4.26c-3.13,0-5.67,2.54-5.67,5.67v18.57
			l-18.96-22.25c-1.08-1.26-2.65-1.99-4.32-1.99h-7.09c-3.13,0-5.67,2.54-5.67,5.67v18.78l-10.71-21.32
			c-0.96-1.92-2.92-3.12-5.07-3.12h-7.07c-2.14,0-4.1,1.21-5.06,3.12l-9.95,19.75v-17.2c0-3.13-2.54-5.67-5.67-5.67h-4.99
			c-2.08,0-3.88,1.12-4.87,2.78c-4.27-2.38-10.06-2.89-17.72-2.89c-3.65,0-9.33,0.21-12.69,0.6c-4.9,0.55-8.19,1.33-11.43,3.85
			c-0.32,0.25-0.65,0.53-0.98,0.85c-2.13-2.55-5.18-4.19-8.87-4.68c-2.82-0.38-3-0.38-12.26-0.5l-0.06,0c-0.02,0-0.05,0-0.07,0
			h-22.51c-0.48,0-0.95,0.07-1.4,0.18c-0.45-0.11-0.92-0.18-1.4-0.18h-32.81c-1.53,0-2.91,0.61-3.93,1.59
			c-2.44-1.29-5.42-1.37-14.45-1.59c-0.05,0-0.09,0-0.14,0h-21.27c-3.13,0-5.67,2.54-5.67,5.67v37.38c0,3.13,2.54,5.67,5.67,5.67
			h4.48c3.13,0,5.67-2.54,5.67-5.67v-8.4h11.11c3.85,0,5.33,0,6.19-0.06c2.65-0.07,4.77-0.3,6.66-0.95v9.42
			c0,3.13,2.54,5.67,5.67,5.67h32.86c0.48,0,0.93-0.06,1.37-0.17c0.44,0.11,0.9,0.17,1.37,0.17h4.82c3.13,0,5.67-2.54,5.67-5.67
			v-8.73h12.02c5.62,0.04,6.91,0.05,7.77,0.15c0.09,0.69,0.09,1.35,0.09,5v3.59c0,3.13,2.54,5.67,5.67,5.67h4.82
			c2.06,0,3.86-1.1,4.85-2.75c0.11,0.07,0.21,0.14,0.33,0.21c0.02,0.01,0.05,0.03,0.07,0.04c3.87,2.23,8.59,2.61,17.71,2.61
			c13.04,0,19.05-0.63,22.97-2.41c0.03-0.01,0.05-0.02,0.08-0.04c1.03,1.41,2.7,2.34,4.58,2.34h4.99c0.32,0,0.63-0.03,0.94-0.08
			c0.3,0.05,0.61,0.08,0.92,0.08h5.03c2.15,0,4.12-1.22,5.08-3.14l2.37-4.76h19.83l2.37,4.76c0.96,1.93,2.92,3.14,5.07,3.14h4.93
			c0.46,0,0.9-0.06,1.33-0.16c0.43,0.1,0.87,0.16,1.34,0.16h4.26c3.13,0,5.67-2.54,5.67-5.67V325.9l18.81,22.11
			c1.08,1.27,2.66,2,4.32,2h7.24c0.49,0,0.95-0.07,1.4-0.18c0.46,0.12,0.94,0.18,1.42,0.18h5c2.16,0,4.12-1.22,5.08-3.15l2.35-4.75
			h19.66l2.35,4.75c0.96,1.93,2.93,3.15,5.08,3.15h4.9c1.73,0,3.36-0.79,4.42-2.13c3.74,1.91,8.41,2.24,16.96,2.24
			c12.98,0,18.96-0.63,22.87-2.42c0.04-0.02,0.08-0.04,0.12-0.06c5.17-2.51,7.8-7.28,7.8-14.18c0-4.06-0.92-7.27-2.82-9.81
			C849.6,323.31,849.33,322.98,849.06,322.67z"/>
		<path class="st0" d="M906.46,301.29h-6.33c-1.62,0-3.17,0.7-4.25,1.91l-11.69,13.22l-12.17-13.29c-1.07-1.17-2.59-1.84-4.18-1.84
			h-6.17c-2.25,0-4.29,1.33-5.19,3.39s-0.51,4.46,1.02,6.12l18.81,20.46v13.09c0,3.13,2.54,5.67,5.67,5.67h4.54
			c3.13,0,5.67-2.54,5.67-5.67v-13.12l18.48-20.46c1.5-1.66,1.88-4.05,0.97-6.1C910.74,302.61,908.7,301.29,906.46,301.29z"/>
		<path class="st0" d="M1417.69,323.64c-0.25-0.34-0.51-0.67-0.78-0.97c0.26-0.19,0.51-0.4,0.74-0.63c1.07-1.08,1.65-2.54,1.64-4.05
			c-0.07-5.69-0.95-9.61-5.23-12.81c-4.4-3.33-10.7-4-19.44-4c-3.65,0-9.35,0.21-12.7,0.6c-3.32,0.37-5.9,0.86-8.22,1.91
			c-1.03-1.45-2.71-2.4-4.63-2.4h-33.52c-0.83,0-1.62,0.18-2.34,0.51c-0.71-0.32-1.5-0.51-2.34-0.51h-4.28
			c-3.13,0-5.67,2.54-5.67,5.67v18.63l-19.1-22.31c-1.08-1.26-2.65-1.98-4.31-1.98h-7.12c-2.14,0-3.99,1.18-4.96,2.93
			c-4.01-2.69-9.86-3.04-19.83-3.04c-3.04,0-9.07,0.17-11.36,0.29c-0.03,0-0.06,0-0.1,0.01c-4.42,0.31-7.38,0.84-10.1,2.56
			c-0.99-1.64-2.79-2.74-4.85-2.74h-4.99c-1.82,0-3.44,0.86-4.48,2.2c-3.91-1.93-9.38-2.31-18.38-2.31c-3.14,0-8.15,0.12-10.63,0.29
			c-6.06,0.36-9.5,0.97-12.65,3.43c-0.02,0.02-0.04,0.03-0.06,0.05c-4.43,3.56-5.47,9.65-5.58,19.45l-10.07-20
			c-0.96-1.91-2.92-3.12-5.06-3.12h-7.09c-2.14,0-4.1,1.2-5.06,3.11l-9.88,19.57c0.36-1.87,0.45-3.84,0.45-5.75
			c0-3.92-0.49-6.55-1.7-9.1c-0.02-0.04-0.04-0.07-0.05-0.11c-2.02-4.02-5.8-6.58-10.64-7.22c-2.85-0.38-3.03-0.38-12.43-0.5
			l-0.06,0c-0.02,0-0.05,0-0.07,0h-22.86c-2.18,0-4.08,1.24-5.02,3.05c-4.01-2.8-9.87-3.16-19.95-3.16c-3.03,0-9.04,0.17-11.32,0.29
			c-0.03,0-0.06,0-0.1,0.01c-5.1,0.36-8.26,1-11.35,3.46c-0.04,0.03-0.08,0.06-0.12,0.09c-0.44,0.37-0.83,0.76-1.2,1.17
			c-0.05-0.05-0.09-0.1-0.14-0.15c-4.12-4.2-9.84-4.88-21.91-4.88c-3.14,0-8.15,0.12-10.63,0.29c-4.59,0.28-7.68,0.69-10.27,1.95
			c-1.04-1.3-2.63-2.13-4.42-2.13h-33.38c-2.17,0-4.06,1.22-5.01,3.02c-3.86-2.68-8.8-3.02-17.23-3.02h-23.57
			c-3.13,0-5.67,2.54-5.67,5.67v37.38c0,3.13,2.54,5.67,5.67,5.67h23.93c8.34,0,13.01-0.34,16.83-3.11
			c0.93,1.85,2.85,3.11,5.06,3.11h33.43c1.78,0,3.36-0.82,4.4-2.09c4.19,1.97,10.36,2.21,21.66,2.21c11.64,0,17.16-0.4,21.16-4.19
			c0.01-0.01,0.03-0.03,0.04-0.04c0.14-0.13,0.26-0.27,0.39-0.4c1.69,1.74,3.84,3,6.24,3.58c2.07,0.49,6.08,1.05,19.01,1.05
			c9.31,0,14.79-0.49,18.51-3.05c0.96,1.75,2.83,2.94,4.97,2.94h4.89c3.13,0,5.67-2.54,5.67-5.67v-8.73h12.3
			c5.87,0.04,7.1,0.05,7.99,0.15c0.09,0.69,0.09,1.35,0.09,4.99v3.59c0,3.13,2.54,5.67,5.67,5.67h4.89c0.34,0,0.67-0.04,0.99-0.09
			c0.32,0.05,0.63,0.09,0.96,0.09h5.04c2.15,0,4.11-1.22,5.07-3.14l2.38-4.76h19.89l2.38,4.77c0.96,1.92,2.92,3.14,5.07,3.14h4.94
			c1.71,0,3.32-0.77,4.39-2.08c4.19,1.96,10.35,2.19,21.63,2.19c8.79,0,14.09-0.23,17.88-1.97c1.04,1.14,2.53,1.86,4.19,1.86h4.99
			c2.04,0,3.82-1.08,4.82-2.69c1.22,0.8,2.57,1.4,4.02,1.75c2.07,0.49,6.1,1.05,19.07,1.05c9.2,0,14.67-0.47,18.39-2.93
			c0.98,1.68,2.8,2.82,4.9,2.82h4.28c3.13,0,5.67-2.54,5.67-5.67v-18.5l18.95,22.18c1.08,1.26,2.65,1.99,4.31,1.99h7.27
			c0.83,0,1.62-0.18,2.34-0.51c0.71,0.32,1.5,0.51,2.34,0.51h33.57c1.63,0,3.09-0.69,4.12-1.79c3.64,1.6,8.27,1.9,16.33,1.9
			c13.05,0,19.07-0.63,23-2.41c0.04-0.02,0.08-0.04,0.12-0.05c5.2-2.5,7.84-7.28,7.84-14.19
			C1420.53,329.4,1419.6,326.19,1417.69,323.64z"/>
	</g>
	<linearGradient id="SVGID_1_" gradientUnits="userSpaceOnUse" x1="248.1314" y1="191.551" x2="248.1314" y2="63.6077">
		<stop  offset="0" style="stop-color:#FEA800"/>
		<stop  offset="1" style="stop-color:#F9F300"/>
	</linearGradient>
	<path class="st1" d="M382.88,139.99c-25.94-45.26-74.73-75.74-130.63-75.74c-62.53,0-116.15,38.14-138.86,92.42l102.76,36.17
		L382.88,139.99z"/>
	<linearGradient id="SVGID_2_" gradientUnits="userSpaceOnUse" x1="226.5096" y1="212.5352" x2="458.8996" y2="137.4558">
		<stop  offset="0" style="stop-color:#02A4F5"/>
		<stop  offset="1" style="stop-color:#1345AC"/>
	</linearGradient>
	<polygon class="st2" points="222.04,199.57 459.04,125.06 457.96,152.17 222.84,227.37 	"/>
	<linearGradient id="SVGID_3_" gradientUnits="userSpaceOnUse" x1="226.5096" y1="251.1066" x2="458.8996" y2="176.0272">
		<stop  offset="0" style="stop-color:#02A4F5"/>
		<stop  offset="1" style="stop-color:#1345AC"/>
	</linearGradient>
	<polygon class="st3" points="222.04,238.14 459.04,163.63 457.96,190.74 222.84,265.94 	"/>
	<linearGradient id="SVGID_4_" gradientUnits="userSpaceOnUse" x1="226.5096" y1="290.1066" x2="458.8996" y2="215.0272">
		<stop  offset="0" style="stop-color:#02A4F5"/>
		<stop  offset="1" style="stop-color:#1345AC"/>
	</linearGradient>
	<polygon class="st4" points="222.04,277.14 459.04,202.63 457.96,229.74 222.84,304.94 	"/>
	<linearGradient id="SVGID_5_" gradientUnits="userSpaceOnUse" x1="226.5096" y1="327.8209" x2="458.8996" y2="252.7415">
		<stop  offset="0" style="stop-color:#02A4F5"/>
		<stop  offset="1" style="stop-color:#1345AC"/>
	</linearGradient>
	<polygon class="st5" points="222.04,314.85 459.04,240.35 457.96,267.46 222.84,342.66 	"/>
	<linearGradient id="SVGID_6_" gradientUnits="userSpaceOnUse" x1="226.5096" y1="365.1066" x2="458.8996" y2="290.0272">
		<stop  offset="0" style="stop-color:#02A4F5"/>
		<stop  offset="1" style="stop-color:#1345AC"/>
	</linearGradient>
	<polygon class="st6" points="222.04,352.14 459.04,277.63 457.96,304.74 222.84,379.94 	"/>
	<linearGradient id="SVGID_7_" gradientUnits="userSpaceOnUse" x1="204.3304" y1="215.0194" x2="204.3304" y2="198.8278">
		<stop  offset="0" style="stop-color:#0076AD"/>
		<stop  offset="1" style="stop-color:#052C86"/>
	</linearGradient>
	<circle class="st7" cx="204.33" cy="206.89" r="8.49"/>
	<linearGradient id="SVGID_8_" gradientUnits="userSpaceOnUse" x1="191.398" y1="202.1482" x2="56.6171" y2="152.9576">
		<stop  offset="0" style="stop-color:#01AAF9"/>
		<stop  offset="1" style="stop-color:#04328D"/>
	</linearGradient>
	<path class="st8" d="M58.75,147.19l139.82,49.58c-3.98,1.99-7.53,6.74-5.71,13.9l-135.78-50.3
		C52.62,157.28,54.14,148.1,58.75,147.19z"/>
	<linearGradient id="SVGID_9_" gradientUnits="userSpaceOnUse" x1="131.1152" y1="320.9792" x2="131.1152" y2="186.8109">
		<stop  offset="0" style="stop-color:#01AAF9"/>
		<stop  offset="1" style="stop-color:#1248AE"/>
	</linearGradient>
	<polygon class="st9" points="60.92,165.19 198.31,217.1 201.31,371.92 75.04,275.81 	"/>
	<linearGradient id="SVGID_10_" gradientUnits="userSpaceOnUse" x1="203.2437" y1="378.1013" x2="203.2437" y2="216.6082">
		<stop  offset="0" style="stop-color:#0077AD"/>
		<stop  offset="1" style="stop-color:#042B85"/>
	</linearGradient>
	<polygon class="st10" points="198.29,217.1 208.2,218.3 207.34,375.72 201.29,371.92 	"/>
	<g>
		<path class="st11" d="M512.31,226.54v2.28c0.34,12.55,1.37,15.16,7.18,17.28c4.45,1.63,17.78,2.44,41.04,2.44
			c14.88,0,30.1-0.98,36.6-2.44c7.35-1.47,10.94-6.85,10.94-16.14c0-9.45-2.22-13.69-8.21-15.65c-5.64-1.79-5.64-1.79-61.39-1.79
			c-30.1,0-41.21-8.15-41.21-30.32c0-9.78,2.91-16.95,8.55-21.35c5.81-4.56,11.8-6.36,24.8-7.82c8.38-0.98,23.77-1.63,34.72-1.63
			c25.65,0,38.31,2.28,46.17,8.31c6.5,4.89,8.38,10.27,8.55,24.29h-15.22v-1.63c0-10.59-1.71-13.37-9.58-15.81
			c-5.64-1.79-16.25-2.77-30.61-2.77c-43.09,0-51.82,3.1-51.82,18.58c0,9.94,2.05,13.2,9.75,15.32c5.3,1.3,14.19,2.12,27.53,2.28
			c8.38,0,8.38,0,38.82,0.16c16.59,0,24.45,2.61,29.76,9.94c3.42,4.56,4.96,10.59,4.96,18.74c0,13.69-4.28,22-13.34,26.41
			c-8.55,3.91-25.14,5.54-59.51,5.54c-25.99,0-35.91-1.3-42.92-5.38c-7.87-4.73-10.43-10.43-10.43-23.96c0-0.33,0-2.93,0.17-4.89
			H512.31z"/>
		<path class="st11" d="M648.91,151.56v53.46v14.34c0,20.7,1.27,23.96,10.18,26.24c5.41,1.3,17.18,1.96,35.16,1.96
			c34.04,0,44.38-1.3,48.2-5.87c3.02-3.59,3.18-5.38,3.34-36.67v-53.46h14.16v53.46c-0.16,22.49-0.16,23.31-0.79,29.99
			c-1.11,13.2-7.64,21.03-19.25,23.31c-7.16,1.3-25.13,2.28-42.47,2.28c-21.95,0-36.27-0.81-43.59-2.28
			c-9.86-2.12-16.7-10.27-17.98-21.35c-0.79-6.68-0.95-8.64-1.11-31.95v-53.46H648.91z"/>
		<path class="st11" d="M794.45,151.73l81.7,95.35h2.94v-95.35h12.47v108.72h-21.16l-81.42-95.19h-2.8v95.19h-12.47V151.73H794.45z"
			/>
		<path class="st11" d="M905.39,151.73h68.1c30.5,0,38.05,1.79,45.45,10.43c6.51,7.66,8.59,18.26,8.59,43.85
			c0,24.12-3.11,37.81-10.51,45.48c-7.11,7.33-14.66,8.96-42.49,8.96h-69.14V151.73z M973.94,247.73c19.1,0,19.69,0,25.17-1.47
			c10.66-2.77,14.95-14.51,14.95-40.91c0-16.79-2.07-28.36-5.92-33.74c-3.26-4.24-7.85-6.19-16.88-6.85
			c-2.66-0.33-6.96-0.33-18.06-0.33h-54.63v83.29H973.94z"/>
		<path class="st11" d="M1040.76,151.73h94.95v12.71h-82.01v33.25h78.52v12.71h-78.52v37.33h82.16v12.71h-95.1V151.73z"/>
		<path class="st11" d="M1270.03,223.28c-0.82,20.86-1.63,24.94-6.68,29.83c-6.36,6.03-16.63,7.66-50.2,7.66
			c-42.87,0-54.28-1.63-61.45-8.64c-6.19-6.03-8.48-18.09-8.48-44.33c0-30.15,2.61-43.03,10.11-49.06
			c5.22-4.07,11.41-5.54,27.71-6.52c6.85-0.49,21.19-0.82,29.83-0.82c33.41,0,44.99,2.12,52,9.29c4.89,4.89,5.54,8.31,5.87,27.06
			h-13.53V184c-0.16-10.76-1.79-14.02-7.99-16.46c-5.38-1.96-18.09-3.1-37-3.1c-28.69,0-41.89,1.47-46.29,4.89
			c-4.08,3.42-6.03,13.85-6.03,32.76c0,8.96,0.98,26.41,1.63,31.78c1.3,8.31,4.89,11.74,14.02,12.55c7.17,0.81,22,1.3,35.21,1.3
			c10.76,0,29.67-0.81,33.9-1.47c10.92-1.63,13.2-4.56,13.2-18.09l0.16-4.89H1270.03z"/>
		<path class="st11" d="M1293.49,151.73v46.78h17.04l63.45-46.78h22.91l-72.85,52.97l76.67,55.74h-23.21l-66.98-49.22h-17.04v49.22
			h-13.07V151.73H1293.49z"/>
	</g>
	<g>
		<path class="st11" d="M491.93,306.68h21.27c11.34,0.28,11.34,0.28,13.41,2.02c1.91,1.63,2.72,4.43,2.72,9.53
			c0,5.04-0.71,7.73-2.52,9.42c-1.81,1.74-3.28,2.19-7.71,2.3c-0.61,0.06-2.57,0.06-5.9,0.06h-16.78v14.07h-4.48V306.68z
			 M513.2,325.63c8.16,0,8.82-0.11,10.18-1.35c1.01-0.95,1.36-2.35,1.36-5.88c0-3.87-0.25-5.1-1.26-5.94
			c-1.36-1.12-1.86-1.23-10.28-1.4h-16.78v14.57H513.2z"/>
		<path class="st11" d="M531.72,306.68h32.81v4.37h-28.33v11.43h27.13v4.37h-27.13v12.83h28.38v4.37h-32.86V306.68z"/>
		<path class="st11" d="M567.32,306.68h22.51c9.09,0.11,9.14,0.11,11.63,0.45c2.92,0.39,5.09,1.85,6.22,4.15
			c0.81,1.74,1.14,3.59,1.14,6.67c0,6.89-1.19,8.86-5.95,9.86c1.73,0.34,2.76,0.9,3.68,1.91c1.41,1.51,1.62,2.63,1.62,9.02v5.32
			h-4.82v-3.59c0-4.82,0-4.88-0.22-6.33c-0.27-2.41-1.57-3.81-3.84-4.15c-1.68-0.28-1.68-0.28-9.47-0.34h-17.69v14.4h-4.82V306.68z
			 M589.83,325.29h4.33c5.79,0,8.01-0.62,8.98-2.52c0.43-0.84,0.76-2.97,0.76-4.88c0-2.63-0.65-4.71-1.73-5.49
			c-1.46-1.12-3.63-1.35-12.34-1.35h-17.69v14.24H589.83z"/>
		<path class="st11" d="M617.8,332.41v0.78c0.12,4.32,0.47,5.21,2.49,5.94c1.54,0.56,6.16,0.84,14.23,0.84
			c5.16,0,10.43-0.34,12.69-0.84c2.55-0.5,3.79-2.35,3.79-5.55c0-3.25-0.77-4.71-2.85-5.38c-1.96-0.62-1.96-0.62-21.28-0.62
			c-10.43,0-14.29-2.8-14.29-10.42c0-3.36,1.01-5.83,2.96-7.34c2.02-1.57,4.09-2.19,8.6-2.69c2.9-0.34,8.24-0.56,12.03-0.56
			c8.89,0,13.28,0.78,16.01,2.86c2.25,1.68,2.91,3.53,2.96,8.35h-5.28v-0.56c0-3.64-0.59-4.6-3.32-5.44
			c-1.96-0.62-5.63-0.95-10.61-0.95c-14.94,0-17.96,1.06-17.96,6.39c0,3.42,0.71,4.54,3.38,5.27c1.84,0.45,4.92,0.73,9.55,0.79
			c2.9,0,2.9,0,13.46,0.06c5.75,0,8.48,0.9,10.32,3.42c1.19,1.57,1.72,3.64,1.72,6.45c0,4.71-1.48,7.57-4.62,9.08
			c-2.96,1.35-8.71,1.91-20.63,1.91c-9.01,0-12.45-0.45-14.88-1.85c-2.73-1.63-3.62-3.59-3.62-8.24c0-0.11,0-1.01,0.06-1.68H617.8z"
			/>
		<path class="st11" d="M663.75,306.68v37.38h-4.99v-37.38H663.75z"/>
		<path class="st11" d="M701.42,336.16h-26.85l-3.93,7.9h-5.03l18.83-37.38h7.07l18.78,37.38h-4.93L701.42,336.16z M688.97,311.05
			h-1.79l-10.46,20.74h22.61L688.97,311.05z"/>
		<path class="st11" d="M720.05,306.68l27.93,32.79h1.01v-32.79h4.26v37.38h-7.24l-27.84-32.73h-0.96v32.73h-4.26v-37.38H720.05z"/>
		<path class="st11" d="M791.68,336.16h-26.69l-3.91,7.9h-5l18.72-37.38h7.03l18.67,37.38h-4.9L791.68,336.16z M779.3,311.05h-1.78
			l-10.4,20.74h22.49L779.3,311.05z"/>
		<path class="st11" d="M808.61,332.41v0.78c0.12,4.32,0.47,5.21,2.48,5.94c1.53,0.56,6.13,0.84,14.15,0.84
			c5.13,0,10.38-0.34,12.62-0.84c2.54-0.5,3.77-2.35,3.77-5.55c0-3.25-0.77-4.71-2.83-5.38c-1.95-0.62-1.95-0.62-21.17-0.62
			c-10.38,0-14.21-2.8-14.21-10.42c0-3.36,1-5.83,2.95-7.34c2-1.57,4.07-2.19,8.55-2.69c2.89-0.34,8.2-0.56,11.97-0.56
			c8.85,0,13.21,0.78,15.92,2.86c2.24,1.68,2.89,3.53,2.95,8.35h-5.25v-0.56c0-3.64-0.59-4.6-3.3-5.44
			c-1.95-0.62-5.6-0.95-10.55-0.95c-14.86,0-17.87,1.06-17.87,6.39c0,3.42,0.71,4.54,3.36,5.27c1.83,0.45,4.89,0.73,9.49,0.79
			c2.89,0,2.89,0,13.38,0.06c5.72,0,8.43,0.9,10.26,3.42c1.18,1.57,1.71,3.64,1.71,6.45c0,4.71-1.47,7.57-4.6,9.08
			c-2.95,1.35-8.67,1.91-20.52,1.91c-8.96,0-12.38-0.45-14.8-1.85c-2.71-1.63-3.6-3.59-3.6-8.24c0-0.11,0-1.01,0.06-1.68H808.61z"/>
		<path class="st11" d="M867.85,306.68l16.43,17.93l15.86-17.93h6.33l-19.94,22.08v15.3h-4.54v-15.3l-20.3-22.08H867.85z"/>
		<path class="st11" d="M922.26,306.68h23.57c10.56,0,13.17,0.62,15.73,3.59c2.25,2.63,2.97,6.28,2.97,15.08
			c0,8.29-1.08,13-3.64,15.64c-2.46,2.52-5.07,3.08-14.71,3.08h-23.93V306.68z M945.99,339.7c6.61,0,6.82,0,8.71-0.5
			c3.69-0.95,5.18-4.99,5.18-14.07c0-5.77-0.72-9.75-2.05-11.6c-1.13-1.46-2.72-2.13-5.84-2.35c-0.92-0.11-2.41-0.11-6.25-0.11
			h-18.91v28.64H945.99z"/>
		<path class="st11" d="M968.07,306.68h33.38v4.37h-28.83v11.43h27.6v4.37h-27.6v12.83h28.88v4.37h-33.43V306.68z"/>
		<path class="st11" d="M1047.12,331.29c-0.28,7.17-0.56,8.57-2.3,10.26c-2.19,2.07-5.72,2.63-17.26,2.63
			c-14.74,0-18.66-0.56-21.13-2.97c-2.13-2.07-2.91-6.22-2.91-15.24c0-10.37,0.9-14.8,3.47-16.87c1.79-1.4,3.92-1.91,9.53-2.24
			c2.35-0.17,7.29-0.28,10.26-0.28c11.49,0,15.47,0.73,17.88,3.19c1.68,1.68,1.91,2.86,2.02,9.3h-4.65v-1.29
			c-0.06-3.7-0.62-4.82-2.75-5.66c-1.85-0.67-6.22-1.07-12.72-1.07c-9.86,0-14.4,0.5-15.92,1.68c-1.4,1.18-2.07,4.76-2.07,11.27
			c0,3.08,0.34,9.08,0.56,10.93c0.45,2.86,1.68,4.04,4.82,4.32c2.47,0.28,7.57,0.45,12.11,0.45c3.7,0,10.2-0.28,11.66-0.5
			c3.76-0.56,4.54-1.57,4.54-6.22l0.06-1.68H1047.12z"/>
		<path class="st11" d="M1090.64,309.6c1.45,1.51,2.07,3.42,2.43,7.4c0.21,1.91,0.36,5.66,0.36,8.52c0,9.19-0.72,13.4-2.64,15.64
			c-2.02,2.3-5.84,3.03-16.39,3.03c-9.2,0-15.1-0.28-17.68-0.9c-2.79-0.67-5.02-3.03-5.64-6.05c-0.57-2.47-0.78-5.94-0.78-11.99
			c0-10.03,0.83-14.01,3.36-16.14c1.76-1.4,3.52-1.91,8.22-2.24c2.07-0.11,8.02-0.28,11.01-0.28
			C1084.69,306.57,1088.41,307.19,1090.64,309.6z M1056.77,312.9c-1.24,1.23-1.76,4.76-1.76,11.94c0,8.29,0.36,11.55,1.45,12.83
			c0.93,1.07,2.33,1.46,6.15,1.74c1.86,0.11,7.65,0.28,9.87,0.28c5.07,0,9.82-0.28,12.15-0.73c2.02-0.39,3.1-1.57,3.52-3.81
			c0.31-2.02,0.57-6.05,0.57-9.53c0-4.2-0.21-8.69-0.52-10.37c-0.31-2.13-1.55-3.25-3.88-3.64c-2.64-0.45-5.27-0.56-14.12-0.56
			C1061.63,311.05,1058.11,311.56,1056.77,312.9z"/>
		<path class="st11" d="M1097.88,306.68h22.86c9.23,0.11,9.29,0.11,11.82,0.45c2.97,0.39,5.17,1.85,6.32,4.15
			c0.82,1.74,1.16,3.59,1.16,6.67c0,6.89-1.21,8.86-6.05,9.86c1.76,0.34,2.8,0.9,3.74,1.91c1.43,1.51,1.65,2.63,1.65,9.02v5.32
			h-4.89v-3.59c0-4.82,0-4.88-0.22-6.33c-0.27-2.41-1.59-3.81-3.9-4.15c-1.7-0.28-1.7-0.28-9.62-0.34h-17.97v14.4h-4.89V306.68z
			 M1120.74,325.29h4.4c5.88,0,8.13-0.62,9.12-2.52c0.44-0.84,0.77-2.97,0.77-4.88c0-2.63-0.66-4.71-1.76-5.49
			c-1.48-1.12-3.68-1.35-12.53-1.35h-17.97v14.24H1120.74z"/>
		<path class="st11" d="M1177.22,336.16h-26.91l-3.94,7.9h-5.04l18.87-37.38h7.09l18.82,37.38h-4.94L1177.22,336.16z
			 M1164.74,311.05h-1.8l-10.48,20.74h22.66L1164.74,311.05z"/>
		<path class="st11" d="M1231.68,331.29c-0.28,7.17-0.56,8.57-2.3,10.26c-2.19,2.07-5.72,2.63-17.26,2.63
			c-14.74,0-18.66-0.56-21.13-2.97c-2.13-2.07-2.91-6.22-2.91-15.24c0-10.37,0.9-14.8,3.47-16.87c1.79-1.4,3.92-1.91,9.53-2.24
			c2.35-0.17,7.29-0.28,10.26-0.28c11.49,0,15.47,0.73,17.88,3.19c1.68,1.68,1.91,2.86,2.02,9.3h-4.65v-1.29
			c-0.06-3.7-0.62-4.82-2.75-5.66c-1.85-0.67-6.22-1.07-12.72-1.07c-9.86,0-14.4,0.5-15.92,1.68c-1.4,1.18-2.07,4.76-2.07,11.27
			c0,3.08,0.34,9.08,0.56,10.93c0.45,2.86,1.68,4.04,4.82,4.32c2.47,0.28,7.57,0.45,12.11,0.45c3.7,0,10.2-0.28,11.66-0.5
			c3.76-0.56,4.54-1.57,4.54-6.22l0.06-1.68H1231.68z"/>
		<path class="st11" d="M1239.18,306.68v37.38h-4.99v-37.38H1239.18z"/>
		<path class="st11" d="M1283.38,309.6c1.45,1.51,2.07,3.42,2.44,7.4c0.21,1.91,0.36,5.66,0.36,8.52c0,9.19-0.73,13.4-2.65,15.64
			c-2.02,2.3-5.86,3.03-16.45,3.03c-9.24,0-15.15-0.28-17.74-0.9c-2.8-0.67-5.03-3.03-5.66-6.05c-0.57-2.47-0.78-5.94-0.78-11.99
			c0-10.03,0.83-14.01,3.37-16.14c1.76-1.4,3.53-1.91,8.25-2.24c2.08-0.11,8.04-0.28,11.05-0.28
			C1277.41,306.57,1281.15,307.19,1283.38,309.6z M1249.39,312.9c-1.25,1.23-1.76,4.76-1.76,11.94c0,8.29,0.36,11.55,1.45,12.83
			c0.93,1.07,2.34,1.46,6.17,1.74c1.87,0.11,7.68,0.28,9.91,0.28c5.08,0,9.86-0.28,12.19-0.73c2.02-0.39,3.11-1.57,3.53-3.81
			c0.31-2.02,0.57-6.05,0.57-9.53c0-4.2-0.21-8.69-0.52-10.37c-0.31-2.13-1.56-3.25-3.89-3.64c-2.65-0.45-5.29-0.56-14.16-0.56
			C1254.27,311.05,1250.74,311.56,1249.39,312.9z"/>
		<path class="st11" d="M1297.5,306.68l28.06,32.79h1.01v-32.79h4.28v37.38h-7.27l-27.97-32.73h-0.96v32.73h-4.28v-37.38H1297.5z"/>
		<path class="st11" d="M1335.53,306.68h33.52v4.37h-28.95v11.43h27.72v4.37h-27.72v12.83h29.01v4.37h-33.57V306.68z"/>
		<path class="st11" d="M1376.21,332.41v0.78c0.12,4.32,0.47,5.21,2.49,5.94c1.54,0.56,6.17,0.84,14.25,0.84
			c5.17,0,10.45-0.34,12.71-0.84c2.55-0.5,3.8-2.35,3.8-5.55c0-3.25-0.77-4.71-2.85-5.38c-1.96-0.62-1.96-0.62-21.32-0.62
			c-10.45,0-14.31-2.8-14.31-10.42c0-3.36,1.01-5.83,2.97-7.34c2.02-1.57,4.1-2.19,8.61-2.69c2.91-0.34,8.25-0.56,12.05-0.56
			c8.91,0,13.3,0.78,16.03,2.86c2.26,1.68,2.91,3.53,2.97,8.35h-5.28v-0.56c0-3.64-0.59-4.6-3.33-5.44
			c-1.96-0.62-5.64-0.95-10.63-0.95c-14.96,0-17.99,1.06-17.99,6.39c0,3.42,0.71,4.54,3.38,5.27c1.84,0.45,4.93,0.73,9.56,0.79
			c2.91,0,2.91,0,13.48,0.06c5.76,0,8.49,0.9,10.33,3.42c1.19,1.57,1.72,3.64,1.72,6.45c0,4.71-1.48,7.57-4.63,9.08
			c-2.97,1.35-8.73,1.91-20.66,1.91c-9.02,0-12.47-0.45-14.9-1.85c-2.73-1.63-3.62-3.59-3.62-8.24c0-0.11,0-1.01,0.06-1.68H1376.21z
			"/>
	</g>
</g>
</svg>
